<svg width="55" height="404" viewBox="0 0 55 404" fill="none" xmlns="http://www.w3.org/2000/svg">
<path d="M41.9717 155.62C30.432 155.552 23.984 155.399 12.4468 154.47L12.6386 165.969C26.1085 165.775 34.6367 164.716 32.961 176.702L42.5469 176.318C43.1587 172.088 42.3297 169.838 38.7125 166.544L41.9717 166.544L41.9717 155.62Z" fill="white"/>
<path d="M23.6336 66.6926C26.7863 66.9223 28.5053 66.97 31.4941 67.0759L31.4941 82.5995C28.324 82.3581 26.5973 82.256 23.6336 82.2162L23.6336 66.6926Z" fill="white"/>
<path d="M12.6949 44.8459C12.2772 38.7228 13.9791 34.3279 17.9473 32.5803L17.9473 63.6275L13.346 63.6275L13.346 52.1286L16.4135 52.1286C14.0509 49.4773 12.8204 47.2681 12.6949 44.8459Z" fill="white"/>
<path d="M25.2329 44.5998C26.9942 44.2718 29.6858 44.2118 33.2852 44.4715L33.2852 32.9634L21.7819 32.1968L21.7819 63.8189L33.2852 64.3939L33.2852 52.7124C25.2261 52.2369 21.704 50.8509 23.141 46.1872C23.2953 45.5675 23.7978 44.9558 25.2329 44.5998Z" fill="white"/>
<path d="M37.1201 32.9624L42.4883 32.9624L42.4883 45.0363L37.1201 44.653L37.1201 32.9624Z" fill="white"/>
<path d="M37.1201 52.8939L42.2966 53.2772L42.4883 53.2772L42.4883 65.7345L37.1201 65.3512L37.1201 52.8939Z" fill="white"/>
<path d="M41.4253 27.4023L51.0113 26.8273C54.7523 5.30198 46.9844 -0.383676 36.824 2.68358L36.824 17.0532C42.3839 11.4993 43.9301 16.5961 41.4253 27.4023Z" fill="white"/>
<path d="M32.9889 22.423L32.9889 5.94113C29.4844 10.097 27.0311 12.9144 25.4532 14.1821C24.6696 14.838 23.8618 14.9893 23.0194 14.4115C22.3172 13.8419 21.9246 12.8813 21.8192 11.499C21.692 8.86433 22.2118 4.85358 23.7839 -1.23191e-06L21.4857 0.270969L21.4857 27.4059C26.8917 28.0972 29.1815 26.3495 32.9889 22.423Z" fill="white"/>
<path d="M17.6504 25.4898C12.0397 20.1465 11.4744 15.0144 14.0053 0.959185L17.6504 0.656738L17.6504 25.4898Z" fill="white"/>
<path fill-rule="evenodd" clip-rule="evenodd" d="M27.0081 132.04C22.7881 132.389 21.5475 133.632 20.5035 136.648C19.4594 139.665 20.4915 145.943 22.0234 150.247L13.5877 148.727C12.9753 145.915 12.6759 144.177 12.4374 139.911C12.3186 131.537 13.1244 127.65 17.6138 123.621C20.4696 121.483 22.5073 120.858 27.0081 120.74C32.7862 121.087 36.9931 122.902 39.762 126.106C42.2403 128.815 43.381 132.636 43.4961 137.988C43.185 147.555 39.2334 151.689 31.7127 152.689C30.3129 152.779 28.7534 152.721 27.0081 152.554L27.0081 132.04ZM31.4173 142.006L31.4173 132.423C32.1308 132.535 32.7687 132.656 33.3349 132.802C35.5775 133.713 36.6558 134.915 36.9772 137.789C36.694 140.676 35.3071 141.617 32.7597 142.001C32.3436 142.018 31.8962 142.018 31.4173 142.006Z" fill="white"/>
<path fill-rule="evenodd" clip-rule="evenodd" d="M27.7727 215.422C36.9766 215.998 42.9465 221.974 43.4941 233.82C43.6848 243.377 36.9834 250.868 27.7727 250.302C23.7145 250.052 20.4067 248.928 17.9088 246.853C16.4625 245.895 12.6267 241.104 12.4332 234.203C12.4277 233 12.4915 231.723 12.6267 230.37C13.7372 219.256 21.4472 215.232 27.7727 215.422ZM27.7727 227.115C37.5175 227.157 37.2486 239.44 27.7727 238.998C18.2969 238.556 17.6119 227.496 27.7727 227.115Z" fill="white"/>
<path fill-rule="evenodd" clip-rule="evenodd" d="M27.7727 332.327C36.9766 332.904 42.9465 338.879 43.4941 350.726C43.6848 360.283 36.9834 367.774 27.7727 367.207C23.7145 366.958 20.4067 365.833 17.9088 363.759C16.4625 362.801 12.6267 358.009 12.4332 351.109C12.4277 349.905 12.4915 348.628 12.6267 347.276C13.7372 336.162 21.4472 332.137 27.7727 332.327ZM27.7727 344.021C37.5175 344.063 37.2486 356.345 27.7727 355.903C18.2969 355.461 17.6119 344.401 27.7727 344.021Z" fill="white"/>
<path d="M35.9872 270.034C35.9461 271.183 35.1742 274.19 34.4132 276.359L42.6974 275.784C43.3343 271.793 43.8477 267.543 43.8477 265.435C44.0765 261.442 43.1251 258.863 40.9315 256.044C38.7379 253.225 32.9207 252.977 30.7703 254.702C29.278 255.469 24.7023 261.346 23.2932 263.518C22.5934 264.413 21.6716 263.965 21.033 263.326C20.2533 262.547 20.034 256.427 22.3346 251.444L13.7072 252.402C12.7198 256.742 12.4056 259.11 12.4056 263.326C12.5973 267.926 13.4543 269.96 15.2814 272.717C17.1102 274.662 18.2704 275.518 20.8019 275.592C22.4373 275.705 24.3031 275.061 25.7856 274.059C26.5854 273.421 27.3004 272.818 28.0873 271.943C30.1962 269.599 31.3859 265.626 34.07 265.435C34.8304 265.549 35.5883 266.34 35.7955 267.543C35.9256 268.298 36.0352 268.693 35.9872 270.034Z" fill="white"/>
<path d="M34.2939 297.439C21.6454 295.978 15.8887 295.906 13.7798 299.356C12.1395 302.039 11.9672 307.878 13.3964 313.921L21.4486 315.263C20.777 313.612 20.7339 310.531 20.8735 309.896C20.9722 309.448 21.4666 308.935 22.1448 308.68C24.3918 307.784 29.0208 308.103 34.2939 308.555L34.2939 315.071L42.3462 315.454L42.3462 308.746L50.3984 309.13L48.0978 298.397L42.3462 298.014L42.3462 293.223L34.2939 292.84L34.2939 297.439Z" fill="white"/>
<path d="M42.0052 371.032C30.4775 370.823 24.0103 370.403 12.4802 369.115L12.4802 380.806C26.9381 380.782 33.1865 382.147 33.5699 387.897C33.5699 394.03 25.7279 393.085 12.4802 391.73L12.4802 403.229L32.8031 403.995C44.2905 404.275 46.4175 389.809 37.9791 382.147L42.0052 382.147L42.0052 371.032Z" fill="white"/>
<path fill-rule="evenodd" clip-rule="evenodd" d="M2.07294 178.007C17.3874 179.172 26.4827 179.865 42.5625 179.958C44.2734 193.857 44.5538 200.46 41.9873 206.597C39.3382 210.724 37.0996 212.251 32.0179 213.113C29.577 213.404 28.381 213.415 26.458 213.305C23.5071 213.02 22.0269 212.536 19.7478 211.388C17.1861 210.053 16.0848 208.858 14.3796 206.405C12.9556 204.099 12.6896 202.315 12.8459 199.123C13.2408 195.294 14.0834 193.49 16.4885 190.115L0.000548805 189.54L0.000549316 177.85C0.704308 177.903 1.39472 177.956 2.07294 178.007ZM21.149 196.643C21.0647 191.291 24.9731 190.152 35.0854 191.265C35.7146 193.979 36.0074 195.399 35.6369 197.589C35.0881 199.617 34.2561 200.198 32.9765 201.039C30.402 202.297 28.7642 202.33 26.2426 201.806C22.759 200.787 21.6752 199.637 21.149 196.643Z" fill="white"/>
<path fill-rule="evenodd" clip-rule="evenodd" d="M2.07294 83.7164C17.3874 84.8817 26.4827 85.5738 42.5625 85.667C44.2734 99.5659 44.5538 106.169 41.9873 112.306C39.3382 116.434 37.0996 117.96 32.0179 118.822C29.577 119.113 28.381 119.125 26.458 119.014C23.5071 118.729 22.0269 118.246 19.7478 117.097C17.1861 115.762 16.0848 114.567 14.3796 112.115C12.9557 109.808 12.6896 108.025 12.8459 104.832C13.2408 101.003 14.0834 99.1996 16.4885 95.8244L0.00055262 95.2494L0.000553131 83.5588C0.704311 83.6123 1.39473 83.6648 2.07294 83.7164ZM21.149 102.353C21.0647 97.0006 24.9731 95.8608 35.0854 96.9743C35.7146 99.6878 36.0074 101.108 35.6369 103.299C35.0881 105.326 34.2561 105.907 32.9765 106.748C30.402 108.007 28.7642 108.039 26.2426 107.515C22.759 106.496 21.6752 105.346 21.149 102.353Z" fill="white"/>
<path d="M41.7714 319.096L41.7714 330.595C30.0075 329.79 23.6073 329.611 12.4382 329.637L12.4382 317.371C21.6928 318.464 27.7108 318.916 41.7714 319.096Z" fill="white"/>
<path d="M49.2484 330.404C51.0864 328.159 52.3625 327.093 55 325.421C52.513 323.479 51.2444 322.285 49.2484 319.863C47.0735 322.151 45.7137 323.216 43.1133 324.846C45.7219 326.669 47.0743 327.872 49.2484 330.404Z" fill="white"/>
<path d="M41.7714 279.617L41.7714 291.116C30.0075 290.311 23.6073 290.132 12.4382 290.158L12.4382 277.892C21.6928 278.985 27.7108 279.437 41.7714 279.617Z" fill="white"/>
<path d="M49.2484 290.924C51.0864 288.68 52.3625 287.614 55 285.941C52.513 284 51.2444 282.806 49.2484 280.384C47.0735 282.672 45.7137 283.737 43.1133 285.366C45.7219 287.19 47.0743 288.392 49.2484 290.924Z" fill="white"/>
</svg>
