<svg width="77" height="77" viewBox="0 0 77 77" fill="none" xmlns="http://www.w3.org/2000/svg">
<path d="M6.41797 6.41667V24.0625H12.8346V12.8333H24.0638V6.41667H6.41797Z" fill="#FEFEFE"/>
<path d="M52.9388 12.8333H64.168V24.0625H70.5846V6.41667H52.9388V12.8333Z" fill="#FEFEFE"/>
<path d="M12.8346 52.9375V64.1667H24.0638V70.5833H6.41797V52.9375H12.8346Z" fill="#FEFEFE"/>
<path d="M64.168 52.9375V64.1667H52.9388V70.5833H70.5846V52.9375H64.168Z" fill="#FEFEFE"/>
<path fill-rule="evenodd" clip-rule="evenodd" d="M16.043 16.0417H35.293V35.2917H16.043V16.0417ZM22.4596 22.4583H28.8763V28.875H22.4596V22.4583Z" fill="#FEFEFE"/>
<path fill-rule="evenodd" clip-rule="evenodd" d="M16.043 41.7083V60.9583H35.293V41.7083H16.043ZM28.8763 48.125H22.4596V54.5417H28.8763V48.125Z" fill="#FEFEFE"/>
<path fill-rule="evenodd" clip-rule="evenodd" d="M41.7096 16.0417H60.9596V35.2917H41.7096V16.0417ZM48.1263 22.4583H54.543V28.875H48.1263V22.4583Z" fill="#FEFEFE"/>
<path d="M41.7096 41.7083H51.3346V51.3333H41.7096V41.7083Z" fill="#FEFEFE"/>
<path d="M60.9596 51.3333H51.3346V60.9583H60.9596V51.3333Z" fill="#FEFEFE"/>
</svg>
